<svg id="svg" version="1.1" xmlns="http://www.w3.org/2000/svg" xmlns:xlink="http://www.w3.org/1999/xlink" width="400" height="244" viewBox="0, 0, 400,244"><g id="svgg"><path id="path0" d="M199.790 61.623 C 199.709 61.834,199.344 61.989,198.927 61.989 C 198.530 61.989,198.040 62.154,197.838 62.355 C 197.637 62.556,197.289 62.721,197.066 62.721 C 196.842 62.721,196.602 62.941,196.532 63.209 C 196.462 63.478,196.241 63.697,196.041 63.697 C 195.322 63.697,193.828 65.233,193.392 66.420 C 193.310 66.643,193.026 66.882,192.760 66.951 C 192.457 67.030,192.304 67.245,192.351 67.523 C 192.392 67.768,192.236 68.240,192.003 68.572 C 191.771 68.904,191.580 69.472,191.580 69.836 C 191.580 70.199,191.415 70.661,191.214 70.862 C 190.935 71.141,190.848 71.838,190.848 73.791 C 190.848 75.743,190.935 76.440,191.214 76.719 C 191.415 76.921,191.580 77.478,191.580 77.957 C 191.580 78.436,191.683 78.829,191.808 78.829 C 192.034 78.829,192.449 79.772,192.366 80.095 C 192.342 80.187,192.540 80.332,192.805 80.416 C 193.071 80.501,193.289 80.765,193.289 81.004 C 193.289 81.529,194.281 82.733,194.714 82.733 C 194.885 82.733,194.957 82.844,194.874 82.979 C 194.790 83.114,194.921 83.299,195.165 83.390 C 195.408 83.481,195.751 83.755,195.926 83.999 C 196.101 84.242,196.447 84.442,196.693 84.442 C 196.940 84.442,197.204 84.606,197.282 84.808 C 197.364 85.023,197.730 85.174,198.170 85.174 C 198.609 85.174,198.975 85.325,199.058 85.540 C 199.158 85.801,199.566 85.906,200.486 85.906 C 201.625 85.906,203.212 86.395,202.944 86.663 C 202.889 86.718,203.193 86.762,203.619 86.761 C 204.045 86.761,204.571 86.568,204.788 86.333 C 205.081 86.015,205.567 85.906,206.687 85.906 C 207.799 85.906,208.228 85.811,208.332 85.540 C 208.409 85.339,208.738 85.174,209.064 85.174 C 209.389 85.174,209.719 85.009,209.796 84.808 C 209.873 84.606,210.145 84.442,210.401 84.442 C 210.656 84.442,211.053 84.222,211.283 83.954 C 211.513 83.685,211.841 83.466,212.013 83.466 C 212.184 83.466,212.325 83.301,212.325 83.099 C 212.325 82.898,212.489 82.733,212.691 82.733 C 212.892 82.733,213.057 82.576,213.057 82.384 C 213.057 82.191,213.278 81.964,213.548 81.878 C 213.819 81.792,213.996 81.648,213.943 81.557 C 213.766 81.255,214.268 80.259,214.519 80.414 C 214.660 80.501,214.765 80.299,214.765 79.941 C 214.765 79.549,214.901 79.317,215.131 79.317 C 215.333 79.317,215.484 79.234,215.468 79.134 C 215.309 78.127,215.545 76.632,215.863 76.632 C 216.267 76.632,216.266 76.640,216.350 73.732 C 216.399 72.010,216.336 71.614,215.953 71.231 C 215.643 70.921,215.497 70.423,215.497 69.677 C 215.497 68.863,215.402 68.578,215.131 68.578 C 214.886 68.578,214.765 68.333,214.765 67.839 C 214.765 67.406,214.613 67.040,214.399 66.958 C 214.198 66.881,214.033 66.677,214.033 66.504 C 214.033 66.331,213.868 66.127,213.667 66.050 C 213.466 65.972,213.301 65.748,213.301 65.552 C 213.301 65.356,212.944 64.946,212.508 64.641 C 212.071 64.336,211.660 64.019,211.592 63.935 C 211.525 63.852,211.278 63.713,211.043 63.626 C 210.808 63.540,210.616 63.300,210.616 63.095 C 210.616 62.889,210.410 62.721,210.158 62.721 C 209.906 62.721,209.563 62.556,209.396 62.355 C 209.229 62.154,208.733 61.989,208.294 61.989 C 207.810 61.989,207.441 61.845,207.355 61.623 C 207.239 61.320,206.585 61.257,203.573 61.257 C 200.560 61.257,199.906 61.320,199.790 61.623 M205.003 97.309 C 204.802 97.386,204.549 97.597,204.442 97.778 C 204.298 98.022,203.586 98.109,201.722 98.109 C 199.704 98.109,199.170 98.182,199.058 98.475 C 198.948 98.761,198.453 98.841,196.774 98.842 C 195.403 98.843,194.392 98.968,193.968 99.189 C 193.566 99.399,192.353 99.565,190.876 99.612 C 189.540 99.655,188.451 99.746,188.456 99.814 C 188.496 100.341,188.148 100.434,185.922 100.491 C 184.136 100.537,183.324 100.657,183.035 100.918 C 182.731 101.193,181.984 101.281,179.954 101.281 C 177.976 101.281,177.151 101.375,176.801 101.640 C 176.540 101.837,175.979 102.001,175.554 102.006 C 174.254 102.019,174.009 102.219,174.009 103.268 C 174.009 103.796,173.839 104.486,173.632 104.802 C 173.354 105.226,173.274 105.881,173.327 107.295 L 173.398 109.213 176.789 109.268 C 179.428 109.311,180.271 109.405,180.591 109.695 C 180.817 109.900,181.412 110.067,181.913 110.067 C 182.414 110.067,182.760 110.169,182.683 110.294 C 182.606 110.418,182.764 110.590,183.035 110.676 C 183.676 110.880,183.778 114.487,183.160 115.105 C 182.917 115.348,182.794 115.957,182.794 116.918 C 182.794 118.041,182.713 118.365,182.428 118.365 C 182.144 118.365,182.062 118.690,182.062 119.829 C 182.062 120.635,181.957 121.293,181.828 121.293 C 181.494 121.293,181.030 123.173,181.218 123.764 C 181.318 124.079,181.234 124.362,180.986 124.545 C 180.772 124.703,180.529 125.326,180.446 125.930 C 180.363 126.534,180.143 127.245,179.958 127.510 C 179.773 127.775,179.622 128.516,179.622 129.157 C 179.622 130.031,179.530 130.323,179.256 130.323 C 178.970 130.323,178.890 130.651,178.890 131.811 C 178.890 133.092,178.822 133.315,178.401 133.425 C 178.015 133.526,177.912 133.762,177.905 134.562 C 177.900 135.117,177.739 135.845,177.547 136.181 C 177.355 136.516,177.195 137.244,177.190 137.798 C 177.185 138.387,177.029 138.932,176.815 139.109 C 176.601 139.287,176.446 139.831,176.441 140.420 C 176.437 140.974,176.272 141.641,176.075 141.901 C 175.877 142.164,175.717 142.893,175.717 143.537 C 175.717 144.293,175.595 144.767,175.366 144.895 C 175.173 145.003,174.948 145.585,174.865 146.188 C 174.783 146.791,174.688 147.474,174.654 147.705 C 174.620 147.936,174.498 148.211,174.383 148.315 C 174.268 148.420,174.264 148.341,174.375 148.139 C 174.494 147.922,174.485 147.856,174.353 147.976 C 174.088 148.218,174.078 148.279,174.039 149.847 C 174.016 150.756,173.915 151.068,173.642 151.068 C 173.356 151.068,173.276 151.401,173.276 152.600 C 173.276 153.852,173.183 154.212,172.766 154.569 C 172.349 154.926,172.271 155.227,172.339 156.210 C 172.413 157.278,172.323 157.493,171.812 157.464 C 171.745 157.460,171.658 158.119,171.618 158.928 C 171.575 159.803,171.402 160.543,171.191 160.754 C 170.944 161.001,170.836 161.661,170.836 162.922 C 170.836 164.284,170.754 164.735,170.505 164.735 C 170.261 164.735,170.162 165.220,170.125 166.610 C 170.086 168.086,169.980 168.567,169.626 168.875 C 168.904 169.501,168.887 176.156,169.606 176.806 C 169.938 177.107,170.104 177.561,170.104 178.169 C 170.104 178.755,170.235 179.132,170.470 179.222 C 170.671 179.299,170.836 179.585,170.836 179.858 C 170.836 180.136,170.997 180.354,171.202 180.354 C 171.403 180.354,171.569 180.491,171.569 180.659 C 171.571 181.113,173.193 182.794,173.630 182.794 C 173.838 182.794,174.009 182.959,174.009 183.160 C 174.009 183.362,174.181 183.527,174.392 183.527 C 174.603 183.527,174.940 183.691,175.142 183.893 C 175.343 184.094,175.932 184.326,176.451 184.409 C 176.970 184.492,177.453 184.712,177.525 184.898 C 177.718 185.401,185.881 185.388,186.439 184.884 C 186.652 184.690,187.397 184.506,188.093 184.474 C 188.790 184.443,189.303 184.326,189.235 184.216 C 189.167 184.105,189.282 184.015,189.491 184.015 C 189.701 184.015,189.872 183.905,189.872 183.771 C 189.872 183.636,190.205 183.527,190.612 183.527 C 191.044 183.527,191.410 183.374,191.492 183.160 C 191.572 182.952,191.936 182.794,192.338 182.794 C 192.775 182.794,193.045 182.666,193.045 182.459 C 193.045 182.274,193.381 182.056,193.793 181.974 C 194.204 181.891,194.482 181.729,194.411 181.613 C 194.339 181.497,194.551 181.278,194.883 181.127 C 195.214 180.976,195.485 180.740,195.485 180.603 C 195.485 180.466,195.705 180.354,195.973 180.354 C 196.244 180.354,196.461 180.191,196.461 179.988 C 196.461 179.786,196.609 179.622,196.790 179.622 C 196.970 179.622,197.314 179.405,197.554 179.139 C 197.794 178.874,198.078 178.711,198.185 178.777 C 198.291 178.843,198.447 178.681,198.531 178.417 C 198.614 178.154,198.905 177.868,199.177 177.782 C 199.448 177.695,199.615 177.569,199.547 177.501 C 199.478 177.433,199.745 177.062,200.138 176.677 C 200.532 176.292,200.854 175.881,200.854 175.763 C 200.854 175.645,201.074 175.350,201.342 175.107 C 201.611 174.864,201.830 174.517,201.830 174.337 C 201.830 174.156,201.999 174.009,202.204 174.009 C 202.410 174.009,202.648 173.825,202.735 173.600 C 202.821 173.375,203.096 172.987,203.346 172.737 C 203.596 172.487,203.735 172.177,203.655 172.047 C 203.575 171.918,203.685 171.812,203.898 171.812 C 204.112 171.812,204.356 171.620,204.442 171.385 C 204.527 171.150,204.908 170.499,205.288 169.938 C 205.668 169.377,205.979 168.812,205.979 168.683 C 205.979 168.553,206.144 168.384,206.345 168.307 C 206.559 168.225,206.711 167.859,206.711 167.427 C 206.711 166.879,206.825 166.687,207.148 166.687 C 207.416 166.687,207.599 166.490,207.622 166.175 C 207.644 165.893,207.837 165.534,208.051 165.377 C 208.266 165.220,208.460 164.844,208.483 164.541 C 208.506 164.235,208.650 164.039,208.808 164.099 C 208.964 164.159,209.088 164.079,209.083 163.922 C 209.060 163.116,209.187 162.782,209.515 162.782 C 209.754 162.782,209.861 162.572,209.828 162.172 C 209.800 161.836,209.689 161.562,209.581 161.562 C 209.472 161.562,209.275 161.276,209.142 160.927 C 208.984 160.511,208.776 160.340,208.538 160.431 C 208.339 160.508,208.176 160.477,208.176 160.364 C 208.176 160.250,207.854 160.024,207.461 159.861 C 207.068 159.698,206.687 159.410,206.615 159.221 C 206.542 159.032,206.216 158.877,205.891 158.877 C 205.566 158.877,205.236 158.713,205.159 158.511 C 204.859 157.731,203.392 158.057,202.942 159.005 C 202.718 159.478,202.428 159.799,202.298 159.719 C 202.169 159.639,202.078 159.664,202.097 159.774 C 202.228 160.527,202.029 161.318,201.708 161.318 C 201.378 161.318,201.234 161.608,201.313 162.111 C 201.341 162.283,200.961 162.388,200.549 162.323 C 200.448 162.307,200.379 162.376,200.395 162.477 C 200.501 163.150,200.314 163.758,200.000 163.758 C 199.799 163.758,199.634 163.910,199.634 164.095 C 199.634 164.279,199.469 164.567,199.268 164.735 C 199.067 164.902,198.902 165.300,198.902 165.619 C 198.902 166.036,198.765 166.199,198.414 166.199 C 198.142 166.199,197.926 166.362,197.926 166.565 C 197.926 166.766,197.761 166.931,197.559 166.931 C 197.358 166.931,197.193 167.096,197.193 167.297 C 197.193 167.498,197.041 167.663,196.856 167.663 C 196.670 167.663,196.458 167.894,196.384 168.176 C 196.310 168.458,196.145 168.624,196.017 168.545 C 195.889 168.466,195.724 168.634,195.649 168.918 C 195.558 169.266,195.388 169.387,195.128 169.287 C 194.906 169.202,194.536 169.344,194.259 169.621 C 193.668 170.212,193.433 170.222,192.803 169.683 C 192.178 169.148,192.041 164.246,192.651 164.246 C 193.000 164.246,193.204 163.414,193.270 161.718 C 193.291 161.200,193.468 160.616,193.664 160.419 C 193.895 160.188,194.021 159.563,194.021 158.642 C 194.021 157.604,194.119 157.183,194.387 157.081 C 194.656 156.977,194.753 156.552,194.753 155.468 C 194.753 154.323,194.834 153.996,195.119 153.996 C 195.407 153.996,195.485 153.657,195.485 152.410 C 195.485 151.217,195.569 150.824,195.825 150.824 C 196.265 150.824,196.461 150.287,196.461 149.088 C 196.461 148.456,196.587 148.075,196.827 147.983 C 197.089 147.883,197.193 147.475,197.193 146.557 C 197.193 145.711,197.319 145.166,197.559 144.966 C 197.796 144.770,197.926 144.229,197.926 143.438 C 197.926 142.573,198.046 142.126,198.335 141.914 C 198.576 141.738,198.779 141.189,198.828 140.586 C 198.873 140.020,199.073 139.242,199.272 138.857 C 199.471 138.472,199.634 137.713,199.634 137.169 C 199.634 136.453,199.735 136.181,200.000 136.181 C 200.280 136.181,200.366 135.872,200.366 134.868 C 200.366 133.999,200.490 133.453,200.732 133.252 C 200.953 133.069,201.098 132.535,201.098 131.906 C 201.098 131.218,201.219 130.817,201.454 130.727 C 201.770 130.606,202.277 128.375,202.118 127.804 C 202.087 127.693,202.163 127.665,202.287 127.741 C 202.595 127.931,202.807 127.295,202.807 126.181 C 202.807 125.643,202.940 125.199,203.123 125.129 C 203.301 125.061,203.468 124.541,203.503 123.948 C 203.537 123.366,203.740 122.695,203.955 122.459 C 204.169 122.222,204.394 121.506,204.455 120.868 C 204.516 120.229,204.720 119.534,204.907 119.322 C 205.094 119.110,205.247 118.526,205.247 118.023 C 205.247 117.521,205.412 116.945,205.613 116.744 C 205.837 116.519,205.979 115.921,205.979 115.201 C 205.979 114.380,206.090 113.982,206.345 113.884 C 206.596 113.787,206.711 113.395,206.711 112.637 C 206.711 112.029,206.809 111.531,206.929 111.531 C 207.219 111.531,207.454 110.891,207.601 109.702 C 207.667 109.166,207.878 108.553,208.070 108.341 C 208.262 108.128,208.420 107.543,208.420 107.041 C 208.420 106.538,208.585 105.963,208.786 105.761 C 208.998 105.549,209.152 104.953,209.152 104.341 C 209.152 103.628,209.271 103.240,209.518 103.145 C 210.755 102.671,209.653 98.109,208.302 98.109 C 208.073 98.109,207.607 97.889,207.266 97.621 C 206.666 97.148,205.759 97.024,205.003 97.309 " stroke="none" fill="#ec640c" fill-rule="evenodd"></path><path id="path1" d="M94.763 59.243 C 94.676 59.478,94.488 59.749,94.344 59.844 C 94.188 59.948,94.049 61.272,94.000 63.116 C 93.940 65.374,93.825 66.308,93.573 66.560 C 93.311 66.822,93.228 67.665,93.228 70.060 C 93.228 72.702,93.168 73.215,92.862 73.215 C 92.555 73.215,92.495 73.724,92.495 76.329 C 92.495 79.179,92.454 79.469,92.007 79.748 C 91.562 80.026,91.519 80.317,91.519 83.075 C 91.519 85.537,91.451 86.124,91.153 86.238 C 90.855 86.353,90.787 86.941,90.787 89.411 C 90.787 91.881,90.719 92.469,90.421 92.584 C 90.122 92.699,90.055 93.300,90.055 95.878 C 90.055 98.457,89.988 99.058,89.689 99.173 C 89.389 99.288,89.323 99.891,89.323 102.485 C 89.323 105.407,89.284 105.678,88.835 105.918 C 88.385 106.159,88.347 106.429,88.347 109.344 C 88.347 111.993,88.287 112.508,87.980 112.508 C 87.674 112.508,87.614 113.023,87.614 115.680 C 87.614 118.338,87.555 118.853,87.248 118.853 C 86.942 118.853,86.882 119.358,86.882 121.938 C 86.882 124.594,86.823 125.066,86.455 125.334 C 86.097 125.595,86.015 126.131,85.946 128.634 C 85.886 130.793,85.768 131.717,85.519 131.966 C 85.260 132.225,85.174 133.042,85.174 135.239 C 85.174 137.517,85.093 138.249,84.808 138.534 C 84.522 138.820,84.442 139.563,84.442 141.941 C 84.442 144.419,84.374 145.008,84.076 145.122 C 83.777 145.237,83.710 145.831,83.710 148.351 C 83.710 151.174,83.668 151.465,83.221 151.743 C 82.776 152.021,82.733 152.312,82.733 155.071 C 82.733 157.532,82.665 158.119,82.367 158.233 C 82.069 158.348,82.001 158.936,82.001 161.406 C 82.001 163.876,81.933 164.464,81.635 164.579 C 81.337 164.693,81.269 165.283,81.269 167.765 C 81.269 170.373,81.210 170.845,80.856 171.043 C 80.513 171.235,80.425 171.783,80.336 174.285 C 80.264 176.305,80.115 177.469,79.885 177.821 C 79.638 178.197,79.561 178.959,79.612 180.509 L 79.683 182.672 90.724 182.736 C 104.061 182.813,102.746 183.247,102.746 178.768 C 102.746 175.880,102.772 175.717,103.234 175.717 C 103.505 175.717,103.722 175.880,103.722 176.083 C 103.722 176.284,103.887 176.449,104.088 176.449 C 104.289 176.449,104.454 176.614,104.454 176.815 C 104.454 177.016,104.607 177.181,104.794 177.181 C 104.981 177.181,105.193 177.336,105.266 177.524 C 105.338 177.713,105.734 177.941,106.146 178.032 C 106.558 178.122,106.894 178.352,106.894 178.543 C 106.894 178.734,107.059 178.890,107.261 178.890 C 107.462 178.890,107.627 179.054,107.627 179.256 C 107.627 179.497,107.868 179.622,108.333 179.622 C 108.735 179.622,109.099 179.779,109.179 179.988 C 109.260 180.197,109.624 180.354,110.031 180.354 C 110.537 180.354,110.779 180.495,110.870 180.842 C 110.963 181.197,111.203 181.330,111.753 181.330 C 112.261 181.330,112.508 181.450,112.508 181.696 C 112.508 181.966,112.789 182.062,113.580 182.062 C 114.308 182.062,114.697 182.180,114.792 182.428 C 114.897 182.702,115.335 182.794,116.527 182.794 C 117.781 182.794,118.121 182.872,118.121 183.160 C 118.121 183.477,119.029 183.527,124.832 183.527 C 130.635 183.527,131.544 183.477,131.544 183.160 C 131.544 182.866,131.920 182.794,133.470 182.794 C 134.957 182.794,135.428 182.711,135.537 182.428 C 135.633 182.177,136.025 182.062,136.783 182.062 C 137.603 182.062,137.889 181.968,137.889 181.696 C 137.889 181.424,138.176 181.330,139.010 181.330 C 139.926 181.330,140.154 181.241,140.259 180.842 C 140.355 180.475,140.592 180.354,141.212 180.354 C 141.783 180.354,142.038 180.241,142.038 179.988 C 142.038 179.757,142.270 179.622,142.665 179.622 C 143.011 179.622,143.458 179.457,143.659 179.256 C 143.860 179.054,144.292 178.890,144.618 178.890 C 144.982 178.890,145.210 178.748,145.210 178.523 C 145.210 178.296,145.441 178.157,145.819 178.157 C 146.162 178.157,146.559 177.945,146.731 177.669 C 146.899 177.401,147.216 177.181,147.436 177.181 C 147.656 177.181,147.972 177.016,148.139 176.815 C 148.306 176.614,148.594 176.449,148.779 176.449 C 148.964 176.449,149.115 176.297,149.115 176.111 C 149.115 175.926,149.335 175.716,149.603 175.646 C 149.872 175.576,150.092 175.344,150.092 175.130 C 150.092 174.860,150.316 174.741,150.824 174.741 C 151.312 174.741,151.556 174.619,151.556 174.375 C 151.556 174.173,151.721 174.009,151.922 174.009 C 152.123 174.009,152.288 173.844,152.288 173.642 C 152.288 173.441,152.425 173.274,152.593 173.272 C 152.965 173.267,153.996 172.214,153.996 171.839 C 153.996 171.690,154.161 171.568,154.362 171.568 C 154.564 171.568,154.728 171.403,154.728 171.202 C 154.728 171.001,154.897 170.836,155.102 170.836 C 155.308 170.836,155.539 170.671,155.616 170.470 C 155.694 170.268,155.910 170.104,156.097 170.104 C 156.284 170.104,156.437 169.884,156.437 169.616 C 156.437 169.344,156.600 169.128,156.803 169.128 C 157.004 169.128,157.169 168.963,157.169 168.761 C 157.169 168.560,157.334 168.395,157.535 168.395 C 157.736 168.395,157.901 168.286,157.901 168.151 C 157.901 168.017,158.121 167.688,158.389 167.419 C 158.658 167.151,158.877 166.711,158.877 166.443 C 158.877 166.172,159.040 165.955,159.243 165.955 C 159.445 165.955,159.610 165.790,159.610 165.589 C 159.610 165.387,159.774 165.223,159.976 165.223 C 160.203 165.223,160.342 164.992,160.342 164.615 C 160.342 164.271,160.554 163.874,160.830 163.702 C 161.098 163.534,161.318 163.270,161.318 163.116 C 161.318 162.961,161.483 162.771,161.684 162.694 C 161.885 162.617,162.050 162.287,162.050 161.962 C 162.050 161.636,162.215 161.307,162.416 161.230 C 162.630 161.148,162.782 160.782,162.782 160.349 C 162.782 159.854,162.903 159.610,163.148 159.610 C 163.389 159.610,163.514 159.369,163.514 158.906 C 163.514 158.407,163.657 158.165,164.002 158.074 C 164.358 157.982,164.491 157.742,164.491 157.192 C 164.491 156.683,164.610 156.437,164.857 156.437 C 165.103 156.437,165.223 156.191,165.223 155.687 C 165.223 155.275,165.387 154.773,165.589 154.572 C 165.790 154.370,165.955 153.786,165.955 153.273 C 165.955 152.669,166.084 152.291,166.321 152.200 C 166.589 152.097,166.687 151.674,166.687 150.616 C 166.687 149.377,166.756 149.154,167.175 149.045 C 167.608 148.931,167.663 148.712,167.663 147.090 C 167.663 145.691,167.749 145.230,168.029 145.122 C 168.343 145.002,168.395 143.941,168.395 137.645 C 168.395 131.348,168.343 130.288,168.029 130.168 C 167.759 130.064,167.663 129.635,167.663 128.526 C 167.663 127.288,167.577 126.970,167.175 126.719 C 166.792 126.480,166.687 126.150,166.687 125.189 C 166.687 124.324,166.579 123.921,166.321 123.822 C 166.095 123.736,165.955 123.365,165.955 122.854 C 165.955 122.280,165.842 122.026,165.589 122.026 C 165.348 122.026,165.223 121.784,165.223 121.320 C 165.223 120.917,165.065 120.553,164.857 120.473 C 164.655 120.396,164.491 120.044,164.491 119.692 C 164.491 119.257,164.334 119.010,164.002 118.924 C 163.655 118.833,163.514 118.591,163.514 118.085 C 163.514 117.678,163.358 117.313,163.148 117.233 C 162.947 117.156,162.782 116.939,162.782 116.752 C 162.782 116.565,162.617 116.412,162.416 116.412 C 162.172 116.412,162.050 116.168,162.050 115.680 C 162.050 115.192,161.928 114.948,161.684 114.948 C 161.483 114.948,161.318 114.773,161.318 114.559 C 161.318 114.345,161.098 114.113,160.830 114.043 C 160.561 113.972,160.342 113.763,160.342 113.577 C 160.342 113.392,160.177 113.240,159.976 113.240 C 159.774 113.240,159.610 113.075,159.610 112.874 C 159.610 112.672,159.445 112.508,159.243 112.508 C 159.042 112.508,158.877 112.333,158.877 112.119 C 158.877 111.905,158.658 111.672,158.389 111.602 C 158.121 111.532,157.901 111.323,157.901 111.137 C 157.901 110.951,157.736 110.799,157.535 110.799 C 157.334 110.799,157.169 110.635,157.169 110.433 C 157.169 110.232,157.004 110.067,156.803 110.067 C 156.602 110.067,156.437 109.902,156.437 109.701 C 156.437 109.498,156.220 109.335,155.949 109.335 C 155.680 109.335,155.461 109.179,155.461 108.988 C 155.461 108.798,155.131 108.569,154.728 108.481 C 154.326 108.392,153.996 108.164,153.996 107.973 C 153.996 107.783,153.777 107.627,153.508 107.627 C 153.237 107.627,153.020 107.464,153.020 107.261 C 153.020 107.016,152.776 106.894,152.288 106.894 C 151.810 106.894,151.556 106.771,151.556 106.539 C 151.556 106.327,151.213 106.120,150.702 106.024 C 150.212 105.932,149.847 105.719,149.847 105.525 C 149.847 105.292,149.540 105.186,148.864 105.186 C 148.214 105.186,147.832 105.062,147.739 104.820 C 147.644 104.571,147.254 104.454,146.519 104.454 C 145.784 104.454,145.394 104.337,145.299 104.088 C 145.197 103.822,144.780 103.722,143.779 103.722 C 142.664 103.722,142.341 103.628,142.094 103.234 C 141.801 102.763,141.525 102.746,134.407 102.746 C 127.288 102.746,127.013 102.763,126.719 103.234 C 126.476 103.623,126.150 103.722,125.104 103.722 C 124.237 103.722,123.691 103.846,123.490 104.088 C 123.315 104.298,122.783 104.454,122.240 104.454 C 121.561 104.454,121.293 104.558,121.293 104.820 C 121.293 105.092,121.008 105.186,120.188 105.186 C 119.464 105.186,119.036 105.304,118.950 105.528 C 118.878 105.716,118.442 105.941,117.982 106.027 C 117.484 106.121,117.145 106.328,117.145 106.539 C 117.145 106.771,116.890 106.894,116.412 106.894 C 115.924 106.894,115.680 107.016,115.680 107.261 C 115.680 107.462,115.468 107.627,115.210 107.627 C 114.951 107.627,114.574 107.791,114.373 107.993 C 114.172 108.194,113.834 108.359,113.623 108.359 C 113.402 108.359,113.240 108.566,113.240 108.847 C 113.240 109.115,113.088 109.335,112.904 109.335 C 112.719 109.335,112.431 109.500,112.264 109.701 C 111.656 110.434,111.531 110.014,111.531 107.226 C 111.531 104.802,111.594 104.340,111.959 104.074 C 112.320 103.810,112.398 103.268,112.466 100.554 C 112.529 98.064,112.625 97.316,112.893 97.213 C 113.168 97.108,113.240 96.426,113.240 93.934 C 113.240 91.299,113.299 90.787,113.606 90.787 C 113.912 90.787,113.972 90.275,113.972 87.641 C 113.972 85.069,114.039 84.468,114.338 84.353 C 114.637 84.239,114.704 83.634,114.704 81.033 C 114.704 78.488,114.772 77.852,115.042 77.852 C 115.534 77.852,115.672 77.065,115.685 74.192 C 115.693 72.330,115.794 71.499,116.054 71.155 C 116.324 70.798,116.412 69.940,116.412 67.670 C 116.412 65.218,116.480 64.632,116.779 64.518 C 117.074 64.404,117.145 63.843,117.145 61.597 L 117.145 58.816 106.033 58.816 C 95.672 58.816,94.910 58.845,94.763 59.243 M198.170 85.266 C 198.170 85.317,198.334 85.495,198.536 85.662 C 198.836 85.911,198.902 85.894,198.902 85.570 C 198.902 85.352,198.737 85.174,198.536 85.174 C 198.334 85.174,198.170 85.215,198.170 85.266 M285.224 100.477 C 283.629 100.545,283.042 100.660,282.940 100.925 C 282.830 101.212,282.190 101.281,279.657 101.281 C 277.022 101.281,276.510 101.341,276.510 101.647 C 276.510 101.944,276.120 102.013,274.466 102.013 C 272.946 102.013,272.343 102.107,272.117 102.379 C 271.916 102.622,271.370 102.746,270.499 102.746 C 269.486 102.746,269.088 102.858,268.766 103.234 C 268.456 103.595,268.046 103.722,267.182 103.722 C 266.308 103.722,266.016 103.814,266.016 104.088 C 266.016 104.359,265.730 104.454,264.910 104.454 C 264.152 104.454,263.760 104.569,263.664 104.820 C 263.586 105.021,263.230 105.186,262.871 105.186 C 262.513 105.186,262.003 105.337,261.738 105.521 C 261.473 105.705,260.900 105.934,260.464 106.028 C 260.022 106.125,259.671 106.355,259.671 106.548 C 259.671 106.781,259.392 106.894,258.816 106.894 C 258.220 106.894,257.962 107.005,257.962 107.261 C 257.962 107.505,257.718 107.627,257.230 107.627 C 256.742 107.627,256.498 107.749,256.498 107.993 C 256.498 108.239,256.251 108.359,255.743 108.359 C 255.193 108.359,254.953 108.491,254.860 108.847 C 254.777 109.165,254.527 109.335,254.143 109.335 C 253.819 109.335,253.491 109.500,253.413 109.701 C 253.336 109.902,253.065 110.067,252.811 110.067 C 252.557 110.067,252.349 110.220,252.349 110.407 C 252.349 110.594,252.087 110.812,251.767 110.892 C 251.447 110.973,250.832 111.369,250.399 111.773 C 249.967 112.177,249.515 112.508,249.395 112.508 C 249.275 112.508,249.176 112.672,249.176 112.874 C 249.176 113.075,249.012 113.240,248.810 113.240 C 248.609 113.240,248.444 113.405,248.444 113.606 C 248.444 113.807,248.279 113.972,248.078 113.972 C 247.877 113.972,247.492 114.192,247.224 114.460 C 246.955 114.728,246.686 114.948,246.625 114.948 C 246.474 114.948,245.272 116.160,245.272 116.312 C 245.272 116.378,245.052 116.669,244.783 116.957 L 244.295 117.481 244.295 115.389 C 244.295 113.502,244.343 113.284,244.783 113.169 C 245.227 113.053,245.272 112.833,245.279 110.761 C 245.285 109.144,245.391 108.343,245.645 108.007 C 245.911 107.655,246.004 106.822,246.004 104.773 L 246.004 102.013 234.411 102.013 L 222.819 102.013 222.819 104.424 C 222.819 106.269,222.733 106.906,222.453 107.138 C 222.164 107.378,222.087 108.066,222.087 110.375 C 222.087 112.887,222.025 113.353,221.660 113.620 C 221.300 113.882,221.220 114.418,221.152 116.989 C 221.092 119.254,220.981 120.120,220.725 120.334 C 220.458 120.555,220.378 121.347,220.378 123.764 C 220.378 126.395,220.319 126.907,220.012 126.907 C 219.706 126.907,219.646 127.422,219.646 130.079 C 219.646 132.737,219.587 133.252,219.280 133.252 C 218.974 133.252,218.914 133.754,218.914 136.303 C 218.914 139.028,218.862 139.405,218.426 139.841 C 217.992 140.275,217.938 140.655,217.938 143.232 C 217.938 145.587,217.869 146.161,217.572 146.275 C 217.273 146.389,217.206 146.977,217.206 149.448 C 217.206 151.918,217.138 152.506,216.840 152.620 C 216.541 152.735,216.473 153.329,216.473 155.853 C 216.473 158.517,216.414 158.989,216.046 159.258 C 215.688 159.520,215.606 160.061,215.533 162.631 C 215.471 164.872,215.356 165.768,215.106 165.975 C 214.846 166.191,214.765 167.007,214.765 169.401 C 214.765 172.032,214.705 172.544,214.399 172.544 C 214.092 172.544,214.033 173.059,214.033 175.717 C 214.033 178.374,213.973 178.890,213.667 178.890 C 213.379 178.890,213.301 179.229,213.301 180.476 L 213.301 182.062 224.893 182.062 L 236.486 182.062 236.486 181.208 C 236.486 180.611,236.596 180.354,236.852 180.354 C 237.158 180.354,237.218 179.842,237.218 177.207 C 237.218 174.636,237.285 174.035,237.584 173.920 C 237.883 173.805,237.950 173.204,237.950 170.626 C 237.950 168.047,238.017 167.446,238.316 167.331 C 238.617 167.215,238.682 166.588,238.682 163.795 C 238.682 160.604,238.712 160.391,239.170 160.271 C 239.625 160.152,239.658 159.938,239.658 157.096 C 239.658 154.612,239.726 154.023,240.024 153.908 C 240.324 153.793,240.390 153.192,240.390 150.617 C 240.390 148.115,240.466 147.404,240.757 147.163 C 241.048 146.921,241.123 146.202,241.123 143.623 C 241.123 140.592,241.154 140.378,241.611 140.259 C 241.961 140.167,242.099 139.926,242.099 139.406 C 242.099 139.007,242.264 138.544,242.465 138.377 C 242.666 138.210,242.831 137.867,242.831 137.615 C 242.831 137.363,242.996 137.157,243.197 137.157 C 243.398 137.157,243.563 136.949,243.563 136.695 C 243.563 136.441,243.728 136.170,243.929 136.092 C 244.131 136.015,244.295 135.674,244.295 135.334 C 244.295 134.879,244.424 134.716,244.783 134.716 C 245.055 134.716,245.272 134.554,245.272 134.350 C 245.272 134.149,245.436 133.984,245.638 133.984 C 245.839 133.984,246.004 133.819,246.004 133.618 C 246.004 133.417,246.207 133.252,246.454 133.252 C 246.702 133.252,247.158 133.032,247.468 132.764 C 247.778 132.495,248.124 132.276,248.237 132.276 C 248.351 132.276,248.444 132.111,248.444 131.910 C 248.444 131.708,248.609 131.544,248.810 131.544 C 249.012 131.544,249.176 131.379,249.176 131.178 C 249.176 130.933,249.420 130.811,249.908 130.811 C 250.311 130.811,250.641 130.696,250.641 130.555 C 250.641 130.414,250.970 130.183,251.373 130.043 C 251.775 129.902,252.105 129.688,252.105 129.567 C 252.105 129.446,252.325 129.347,252.593 129.347 C 252.862 129.347,253.301 129.128,253.569 128.859 C 253.840 128.588,254.383 128.371,254.790 128.371 C 255.278 128.371,255.522 128.249,255.522 128.005 C 255.522 127.717,255.861 127.639,257.108 127.639 C 258.355 127.639,258.694 127.561,258.694 127.273 C 258.694 126.988,258.803 127.015,259.182 127.395 C 259.624 127.836,259.671 128.208,259.671 131.300 C 259.671 134.174,259.729 134.716,260.037 134.716 C 260.313 134.716,260.403 135.015,260.403 135.937 C 260.403 136.859,260.492 137.157,260.769 137.157 C 261.015 137.157,261.135 137.403,261.135 137.912 C 261.135 138.462,261.268 138.702,261.623 138.794 C 261.969 138.885,262.111 139.127,262.111 139.626 C 262.111 140.089,262.236 140.329,262.477 140.329 C 262.680 140.329,262.843 140.546,262.843 140.818 C 262.843 141.089,263.006 141.306,263.209 141.306 C 263.412 141.306,263.575 141.522,263.575 141.792 C 263.575 142.354,266.286 145.210,266.819 145.210 C 267.016 145.210,267.313 145.375,267.480 145.577 C 267.647 145.778,267.935 145.943,268.120 145.943 C 268.305 145.943,268.456 146.098,268.456 146.289 C 268.456 146.686,269.904 147.651,270.499 147.651 C 270.718 147.651,270.897 147.816,270.897 148.017 C 270.897 148.261,271.141 148.383,271.629 148.383 C 272.117 148.383,272.361 148.505,272.361 148.749 C 272.361 149.005,272.619 149.115,273.215 149.115 C 273.907 149.115,274.070 149.208,274.070 149.603 C 274.070 149.996,274.232 150.092,274.898 150.092 C 275.409 150.092,275.779 150.232,275.866 150.458 C 275.959 150.699,276.341 150.824,276.991 150.824 C 277.702 150.824,277.974 150.925,277.974 151.190 C 277.974 151.466,278.273 151.556,279.195 151.556 C 280.075 151.556,280.415 151.651,280.415 151.896 C 280.415 152.312,280.937 152.530,281.960 152.540 C 282.385 152.544,282.947 152.709,283.207 152.906 C 283.468 153.103,284.197 153.264,284.828 153.264 C 285.623 153.264,286.019 153.377,286.116 153.630 C 286.220 153.900,286.645 153.996,287.729 153.996 C 288.874 153.996,289.201 154.077,289.201 154.362 C 289.201 154.639,289.499 154.728,290.421 154.728 C 291.301 154.728,291.641 154.823,291.641 155.068 C 291.641 155.494,292.172 155.705,293.248 155.705 C 293.826 155.705,294.082 155.817,294.082 156.071 C 294.082 156.298,294.312 156.437,294.686 156.437 C 295.110 156.437,295.402 156.655,295.668 157.169 C 295.876 157.572,296.154 157.901,296.284 157.901 C 296.415 157.901,296.522 158.121,296.522 158.389 C 296.522 158.715,296.360 158.877,296.034 158.877 C 295.766 158.877,295.546 158.987,295.546 159.121 C 295.546 159.438,294.642 160.342,294.326 160.342 C 294.192 160.342,294.082 160.561,294.082 160.830 C 294.082 161.246,293.919 161.318,292.976 161.318 C 292.218 161.318,291.826 161.433,291.730 161.684 C 291.524 162.219,282.236 162.212,281.527 161.676 C 281.267 161.479,280.581 161.318,280.002 161.318 C 279.276 161.318,278.800 161.167,278.462 160.830 C 278.160 160.528,277.649 160.342,277.120 160.342 C 276.524 160.342,276.266 160.231,276.266 159.976 C 276.266 159.722,276.012 159.610,275.442 159.610 C 274.988 159.610,274.481 159.445,274.314 159.243 C 274.147 159.042,273.815 158.877,273.578 158.877 C 273.340 158.877,273.082 158.713,273.005 158.511 C 272.928 158.310,272.599 158.145,272.275 158.145 C 271.891 158.145,271.642 157.975,271.558 157.657 C 271.465 157.302,271.225 157.169,270.676 157.169 C 270.167 157.169,269.921 157.049,269.921 156.803 C 269.921 156.602,269.756 156.437,269.555 156.437 C 269.353 156.437,269.189 156.272,269.189 156.071 C 269.189 155.869,269.024 155.705,268.822 155.705 C 268.621 155.705,268.456 155.592,268.456 155.455 C 268.456 155.317,268.182 155.100,267.846 154.973 C 267.511 154.845,267.236 154.630,267.236 154.495 C 267.236 154.360,266.962 154.181,266.626 154.097 C 266.290 154.012,266.016 153.791,266.016 153.604 C 266.016 153.059,264.882 153.207,264.198 153.841 C 263.856 154.159,263.575 154.531,263.575 154.669 C 263.575 154.807,263.411 154.984,263.209 155.061 C 263.008 155.138,262.843 155.479,262.843 155.819 C 262.843 156.206,262.706 156.437,262.477 156.437 C 262.276 156.437,262.111 156.589,262.111 156.774 C 262.111 156.960,261.891 157.170,261.623 157.240 C 261.354 157.310,261.135 157.542,261.135 157.756 C 261.135 157.970,260.970 158.145,260.769 158.145 C 260.567 158.145,260.403 158.298,260.403 158.485 C 260.403 158.672,260.238 158.888,260.037 158.966 C 259.835 159.043,259.671 159.371,259.671 159.695 C 259.671 160.079,259.501 160.329,259.182 160.412 C 258.914 160.483,258.694 160.715,258.694 160.929 C 258.694 161.143,258.530 161.318,258.328 161.318 C 258.127 161.318,257.962 161.483,257.962 161.684 C 257.962 161.885,257.797 162.050,257.596 162.050 C 257.395 162.050,257.230 162.203,257.230 162.390 C 257.230 162.577,257.065 162.793,256.864 162.870 C 256.663 162.948,256.498 163.162,256.498 163.347 C 256.498 163.532,256.278 163.882,256.010 164.124 C 255.741 164.367,255.522 164.714,255.522 164.894 C 255.522 165.075,255.357 165.223,255.156 165.223 C 254.954 165.223,254.790 165.376,254.790 165.563 C 254.790 165.750,254.625 165.966,254.423 166.043 C 254.222 166.120,254.057 166.352,254.057 166.557 C 254.057 166.763,253.893 166.931,253.691 166.931 C 253.490 166.931,253.325 167.071,253.325 167.243 C 253.325 167.414,253.106 167.743,252.837 167.973 C 252.569 168.203,252.349 168.545,252.349 168.733 C 252.349 168.921,252.184 169.139,251.983 169.216 C 251.732 169.312,251.617 169.704,251.617 170.462 C 251.617 171.282,251.711 171.568,251.983 171.568 C 252.184 171.568,252.349 171.725,252.349 171.918 C 252.349 172.110,252.569 172.337,252.837 172.422 C 253.106 172.507,253.325 172.734,253.325 172.927 C 253.325 173.119,253.490 173.276,253.691 173.276 C 253.893 173.276,254.057 173.441,254.057 173.642 C 254.057 173.844,254.210 174.009,254.397 174.009 C 254.584 174.009,254.800 174.173,254.878 174.375 C 254.955 174.576,255.240 174.741,255.512 174.741 C 255.783 174.741,256.143 174.960,256.310 175.229 C 256.478 175.497,256.754 175.717,256.923 175.717 C 257.092 175.717,257.230 175.882,257.230 176.083 C 257.230 176.284,257.383 176.449,257.570 176.449 C 257.757 176.449,257.973 176.614,258.050 176.815 C 258.131 177.025,258.495 177.181,258.902 177.181 C 259.408 177.181,259.650 177.322,259.741 177.669 C 259.826 177.992,260.074 178.157,260.476 178.157 C 260.810 178.157,261.146 178.322,261.223 178.523 C 261.300 178.725,261.540 178.890,261.755 178.890 C 261.970 178.890,262.311 179.054,262.512 179.256 C 262.713 179.457,263.200 179.622,263.593 179.622 C 264.065 179.622,264.308 179.746,264.308 179.988 C 264.308 180.243,264.565 180.354,265.162 180.354 C 265.729 180.354,266.016 180.468,266.016 180.694 C 266.016 181.120,266.547 181.330,267.622 181.330 C 268.201 181.330,268.456 181.442,268.456 181.696 C 268.456 181.981,268.783 182.062,269.928 182.062 C 271.012 182.062,271.437 182.159,271.541 182.428 C 271.649 182.710,272.118 182.794,273.581 182.794 C 275.045 182.794,275.514 182.878,275.622 183.160 C 275.743 183.474,276.775 183.527,282.848 183.527 C 288.983 183.527,289.933 183.477,289.933 183.160 C 289.933 182.859,290.367 182.794,292.373 182.794 C 294.380 182.794,294.814 182.729,294.814 182.428 C 294.814 182.143,295.140 182.062,296.286 182.062 C 297.369 182.062,297.795 181.966,297.898 181.696 C 297.984 181.473,298.354 181.330,298.847 181.330 C 299.897 181.330,300.427 181.117,300.427 180.694 C 300.427 180.459,300.733 180.354,301.411 180.354 C 302.060 180.354,302.443 180.229,302.535 179.988 C 302.616 179.778,302.980 179.622,303.389 179.622 C 303.799 179.622,304.163 179.466,304.244 179.256 C 304.321 179.054,304.584 178.890,304.829 178.890 C 305.073 178.890,305.418 178.746,305.596 178.571 C 305.773 178.396,306.110 178.179,306.345 178.090 C 306.580 178.001,306.772 177.760,306.772 177.555 C 306.772 177.302,307.011 177.181,307.512 177.181 C 307.945 177.181,308.310 177.029,308.393 176.815 C 308.470 176.614,308.686 176.449,308.873 176.449 C 309.060 176.449,309.213 176.284,309.213 176.083 C 309.213 175.882,309.366 175.717,309.553 175.717 C 309.740 175.717,309.957 175.551,310.035 175.347 C 310.113 175.144,310.454 174.872,310.793 174.743 C 311.132 174.614,311.409 174.396,311.409 174.259 C 311.409 174.121,311.584 174.009,311.798 174.009 C 312.012 174.009,312.245 173.789,312.315 173.520 C 312.385 173.252,312.594 173.032,312.780 173.032 C 312.966 173.032,313.118 172.814,313.118 172.546 C 313.118 172.279,313.337 171.923,313.606 171.755 C 313.874 171.588,314.094 171.312,314.094 171.143 C 314.094 170.974,314.259 170.836,314.460 170.836 C 314.661 170.836,314.826 170.683,314.826 170.496 C 314.826 170.309,314.991 170.093,315.192 170.015 C 315.406 169.933,315.558 169.568,315.558 169.135 C 315.558 168.640,315.679 168.395,315.924 168.395 C 316.128 168.395,316.290 168.178,316.290 167.907 C 316.290 167.639,316.443 167.419,316.630 167.419 C 316.983 167.419,317.267 166.913,317.267 166.284 C 317.267 166.084,317.431 165.755,317.633 165.554 C 317.834 165.353,317.999 164.811,317.999 164.351 C 317.999 163.770,318.111 163.514,318.365 163.514 C 318.636 163.514,318.731 163.230,318.731 162.416 C 318.731 161.643,318.876 161.173,319.219 160.830 C 320.066 159.983,319.923 147.651,319.067 147.651 C 318.837 147.651,318.731 147.339,318.731 146.667 C 318.731 146.018,318.606 145.636,318.365 145.543 C 318.164 145.466,317.999 145.206,317.999 144.966 C 317.999 144.727,317.834 144.467,317.633 144.390 C 317.431 144.313,317.267 143.961,317.267 143.609 C 317.267 143.174,317.110 142.927,316.779 142.841 C 316.510 142.770,316.290 142.561,316.290 142.375 C 316.290 142.190,316.126 142.038,315.924 142.038 C 315.723 142.038,315.558 141.923,315.558 141.783 C 315.558 141.644,315.447 141.396,315.310 141.234 C 314.282 140.012,313.823 139.597,313.495 139.597 C 313.288 139.597,313.118 139.433,313.118 139.231 C 313.118 139.030,312.953 138.865,312.752 138.865 C 312.550 138.865,312.386 138.700,312.386 138.499 C 312.386 138.298,312.217 138.133,312.012 138.133 C 311.806 138.133,311.577 137.975,311.503 137.782 C 311.429 137.589,311.048 137.360,310.657 137.274 C 310.265 137.188,309.945 136.962,309.945 136.771 C 309.945 136.549,309.683 136.425,309.213 136.425 C 308.725 136.425,308.481 136.303,308.481 136.059 C 308.481 135.803,308.223 135.692,307.627 135.692 C 307.051 135.692,306.772 135.579,306.772 135.346 C 306.772 135.155,306.436 134.925,306.024 134.835 C 305.612 134.744,305.216 134.516,305.143 134.327 C 305.061 134.113,304.652 133.984,304.054 133.984 C 303.428 133.984,303.048 133.857,302.956 133.618 C 302.869 133.391,302.497 133.252,301.980 133.252 C 301.462 133.252,301.090 133.113,301.003 132.886 C 300.906 132.632,300.509 132.520,299.707 132.520 C 298.860 132.520,298.432 132.389,298.109 132.032 C 297.799 131.690,297.357 131.544,296.633 131.544 C 295.938 131.544,295.552 131.423,295.458 131.178 C 295.354 130.908,294.929 130.811,293.845 130.811 C 292.700 130.811,292.373 130.730,292.373 130.445 C 292.373 130.158,292.034 130.079,290.787 130.079 C 289.540 130.079,289.201 130.001,289.201 129.713 C 289.201 129.437,288.902 129.347,287.980 129.347 C 286.923 129.347,286.760 129.282,286.760 128.859 C 286.760 128.478,286.598 128.371,286.020 128.371 C 285.588 128.371,285.222 128.219,285.140 128.005 C 285.060 127.796,284.696 127.639,284.294 127.639 C 283.759 127.639,283.588 127.525,283.588 127.168 C 283.588 126.909,283.423 126.533,283.221 126.331 C 283.020 126.130,282.855 125.793,282.855 125.582 C 282.855 125.371,283.020 125.198,283.221 125.198 C 283.423 125.198,283.588 125.034,283.588 124.832 C 283.588 124.631,283.752 124.466,283.954 124.466 C 284.155 124.466,284.320 124.301,284.320 124.100 C 284.320 123.899,284.484 123.734,284.686 123.734 C 284.887 123.734,285.272 123.514,285.540 123.246 C 285.880 122.906,286.353 122.758,287.100 122.758 C 287.828 122.758,288.217 122.640,288.313 122.392 C 288.426 122.096,288.988 122.026,291.241 122.026 C 293.495 122.026,294.056 122.096,294.170 122.392 C 294.278 122.672,294.740 122.758,296.149 122.758 C 297.600 122.758,297.987 122.833,297.987 123.115 C 297.987 123.360,298.369 123.524,299.192 123.633 C 299.867 123.723,300.454 123.941,300.527 124.130 C 300.598 124.315,300.977 124.466,301.370 124.466 C 301.779 124.466,302.143 124.622,302.224 124.832 C 302.301 125.034,302.630 125.198,302.956 125.198 C 303.281 125.198,303.611 125.363,303.688 125.564 C 303.770 125.778,304.136 125.930,304.568 125.930 C 305.145 125.930,305.308 126.038,305.308 126.419 C 305.308 126.687,305.459 126.907,305.644 126.907 C 305.829 126.907,306.117 127.071,306.284 127.273 C 306.754 127.838,308.253 127.752,308.410 127.151 C 308.480 126.882,308.690 126.663,308.875 126.663 C 309.088 126.663,309.213 126.391,309.213 125.930 C 309.213 125.442,309.335 125.198,309.579 125.198 C 309.780 125.198,309.945 125.034,309.945 124.832 C 309.945 124.631,310.102 124.466,310.295 124.466 C 310.487 124.466,310.714 124.246,310.799 123.978 C 310.884 123.710,311.048 123.490,311.162 123.490 C 311.277 123.490,311.443 123.160,311.531 122.758 C 311.620 122.355,311.848 122.026,312.039 122.026 C 312.230 122.026,312.386 121.873,312.386 121.686 C 312.386 121.499,312.550 121.282,312.752 121.205 C 312.953 121.128,313.118 120.843,313.118 120.571 C 313.118 120.300,313.337 119.940,313.606 119.773 C 313.874 119.605,314.094 119.329,314.094 119.160 C 314.094 118.991,314.259 118.853,314.460 118.853 C 314.663 118.853,314.826 118.636,314.826 118.365 C 314.826 118.094,314.989 117.877,315.192 117.877 C 315.436 117.877,315.558 117.633,315.558 117.145 C 315.558 116.656,315.680 116.412,315.924 116.412 C 316.126 116.412,316.290 116.248,316.290 116.046 C 316.290 115.845,316.459 115.680,316.664 115.680 C 316.870 115.680,317.111 115.488,317.200 115.253 C 317.289 115.018,317.505 114.681,317.680 114.504 C 317.855 114.326,317.999 113.969,317.999 113.710 C 317.999 113.452,318.164 113.240,318.365 113.240 C 318.566 113.240,318.731 113.075,318.731 112.874 C 318.731 112.672,318.846 112.508,318.987 112.508 C 319.129 112.508,319.405 112.123,319.601 111.653 C 319.797 111.184,320.066 110.799,320.199 110.799 C 320.331 110.799,320.439 110.470,320.439 110.067 C 320.439 109.579,320.317 109.335,320.073 109.335 C 319.872 109.335,319.707 109.160,319.707 108.946 C 319.707 108.732,319.487 108.500,319.219 108.429 C 318.951 108.359,318.731 108.150,318.731 107.964 C 318.731 107.752,318.459 107.627,317.999 107.627 C 317.511 107.627,317.267 107.505,317.267 107.261 C 317.267 107.057,317.050 106.894,316.779 106.894 C 316.510 106.894,316.290 106.779,316.290 106.638 C 316.290 106.497,315.914 106.224,315.453 106.032 C 314.992 105.839,314.547 105.570,314.462 105.434 C 314.378 105.298,313.928 105.186,313.462 105.186 C 312.934 105.186,312.561 105.048,312.474 104.820 C 312.387 104.594,312.016 104.454,311.505 104.454 C 310.932 104.454,310.677 104.341,310.677 104.088 C 310.677 103.817,310.393 103.722,309.588 103.722 C 308.748 103.722,308.438 103.610,308.237 103.234 C 308.024 102.836,307.726 102.746,306.634 102.746 C 305.667 102.746,305.254 102.643,305.152 102.379 C 305.047 102.106,304.611 102.013,303.434 102.013 C 302.357 102.013,301.740 101.897,301.490 101.647 C 301.205 101.362,300.472 101.281,298.179 101.281 C 295.945 101.281,295.168 101.199,294.963 100.939 C 294.665 100.563,289.236 100.306,285.224 100.477 M133.611 124.867 C 133.876 125.049,134.453 125.198,134.893 125.198 C 135.441 125.198,135.692 125.313,135.692 125.564 C 135.692 125.805,135.933 125.930,136.396 125.930 C 136.895 125.930,137.137 126.073,137.228 126.419 C 137.304 126.711,137.560 126.907,137.866 126.907 C 138.147 126.907,138.377 127.014,138.377 127.146 C 138.377 127.278,138.652 127.454,138.987 127.539 C 139.323 127.623,139.597 127.845,139.597 128.031 C 139.597 128.218,139.762 128.371,139.963 128.371 C 140.165 128.371,140.329 128.546,140.329 128.760 C 140.329 128.974,140.549 129.206,140.818 129.276 C 141.086 129.347,141.306 129.556,141.306 129.742 C 141.306 129.927,141.470 130.079,141.672 130.079 C 141.873 130.079,142.038 130.286,142.038 130.538 C 142.038 130.790,142.203 131.132,142.404 131.300 C 142.605 131.467,142.770 131.758,142.770 131.947 C 142.770 132.136,142.935 132.354,143.136 132.432 C 143.337 132.509,143.502 132.845,143.502 133.179 C 143.502 133.581,143.667 133.829,143.990 133.913 C 144.394 134.019,144.478 134.246,144.478 135.233 C 144.478 136.130,144.569 136.425,144.844 136.425 C 145.156 136.425,145.210 137.073,145.210 140.791 C 145.210 144.448,145.151 145.181,144.844 145.299 C 144.594 145.395,144.478 145.787,144.478 146.545 C 144.478 147.338,144.380 147.651,144.132 147.651 C 143.940 147.651,143.708 148.000,143.614 148.430 C 143.520 148.859,143.291 149.361,143.106 149.546 C 142.921 149.731,142.770 150.094,142.770 150.353 C 142.770 150.612,142.605 150.824,142.404 150.824 C 142.148 150.824,142.038 151.081,142.038 151.678 C 142.038 152.274,141.927 152.532,141.672 152.532 C 141.470 152.532,141.306 152.697,141.306 152.898 C 141.306 153.099,141.168 153.266,141.001 153.268 C 140.701 153.273,139.597 154.297,139.597 154.572 C 139.597 154.731,137.927 156.437,137.771 156.437 C 137.533 156.437,136.425 157.615,136.425 157.868 C 136.425 158.021,136.260 158.145,136.059 158.145 C 135.857 158.145,135.692 158.310,135.692 158.511 C 135.692 158.767,135.435 158.877,134.838 158.877 C 134.242 158.877,133.984 158.988,133.984 159.243 C 133.984 159.472,133.753 159.610,133.366 159.610 C 133.027 159.610,132.685 159.774,132.608 159.976 C 132.531 160.177,132.269 160.342,132.026 160.342 C 131.323 160.342,130.811 160.610,130.811 160.978 C 130.811 161.223,130.472 161.318,129.591 161.318 C 128.669 161.318,128.371 161.407,128.371 161.684 C 128.371 161.996,127.720 162.050,123.978 162.050 C 120.236 162.050,119.585 161.996,119.585 161.684 C 119.585 161.409,119.290 161.318,118.393 161.318 C 117.407 161.318,117.180 161.234,117.074 160.830 C 116.989 160.507,116.741 160.342,116.339 160.342 C 116.006 160.342,115.669 160.177,115.592 159.976 C 115.515 159.774,115.170 159.610,114.826 159.610 C 114.482 159.610,114.137 159.445,114.060 159.243 C 113.983 159.042,113.767 158.877,113.580 158.877 C 113.393 158.877,113.240 158.713,113.240 158.511 C 113.240 158.310,113.082 158.145,112.890 158.145 C 112.698 158.145,112.471 157.926,112.386 157.657 C 112.300 157.389,112.073 157.169,111.881 157.169 C 111.689 157.169,111.531 157.004,111.531 156.803 C 111.531 156.602,111.367 156.437,111.165 156.437 C 110.964 156.437,110.799 156.272,110.799 156.071 C 110.799 155.869,110.635 155.705,110.433 155.705 C 110.206 155.705,110.067 155.474,110.067 155.097 C 110.067 154.753,109.855 154.356,109.579 154.184 C 109.311 154.016,109.091 153.754,109.091 153.601 C 109.091 153.449,108.926 153.187,108.725 153.020 C 108.523 152.853,108.359 152.342,108.359 151.884 C 108.359 151.370,108.219 150.999,107.993 150.912 C 107.738 150.814,107.627 150.417,107.627 149.603 C 107.627 148.790,107.515 148.393,107.261 148.295 C 106.966 148.182,106.894 147.633,106.894 145.488 C 106.894 143.344,106.966 142.795,107.261 142.682 C 107.530 142.578,107.627 142.153,107.627 141.069 C 107.627 139.924,107.708 139.597,107.993 139.597 C 108.246 139.597,108.359 139.343,108.359 138.769 C 108.359 138.258,108.499 137.887,108.725 137.801 C 108.926 137.723,109.091 137.437,109.091 137.164 C 109.091 136.892,109.311 136.449,109.579 136.181 C 109.847 135.912,110.067 135.473,110.067 135.204 C 110.067 134.933,110.230 134.716,110.433 134.716 C 110.637 134.716,110.799 134.499,110.799 134.228 C 110.799 133.960,110.907 133.740,111.039 133.740 C 111.170 133.740,111.344 133.476,111.425 133.153 C 111.506 132.830,111.783 132.511,112.040 132.444 C 112.297 132.376,112.508 132.146,112.508 131.933 C 112.508 131.719,112.672 131.544,112.874 131.544 C 113.075 131.544,113.240 131.379,113.240 131.178 C 113.240 130.976,113.405 130.811,113.606 130.811 C 113.807 130.811,113.972 130.647,113.972 130.445 C 113.972 130.244,114.137 130.079,114.338 130.079 C 114.539 130.079,114.704 129.927,114.704 129.742 C 114.704 129.556,114.924 129.347,115.192 129.276 C 115.461 129.206,115.680 128.974,115.680 128.760 C 115.680 128.490,115.905 128.371,116.412 128.371 C 116.901 128.371,117.145 128.249,117.145 128.005 C 117.145 127.804,117.313 127.639,117.518 127.639 C 117.724 127.639,117.955 127.474,118.033 127.273 C 118.110 127.071,118.446 126.907,118.780 126.907 C 119.182 126.907,119.430 126.742,119.514 126.419 C 119.605 126.071,119.847 125.930,120.353 125.930 C 120.761 125.930,121.125 125.774,121.205 125.564 C 121.301 125.316,121.690 125.198,122.418 125.198 C 123.196 125.198,123.490 125.100,123.490 124.841 C 123.490 124.190,132.661 124.213,133.611 124.867 " stroke="none" fill="#040404" fill-rule="evenodd"></path><path id="path2" d="M199.181 61.474 C 198.950 61.620,198.931 61.735,199.120 61.851 C 199.429 62.042,199.878 61.827,199.878 61.487 C 199.878 61.203,199.616 61.198,199.181 61.474 M207.355 61.623 C 207.515 62.038,208.176 62.125,208.176 61.731 C 208.176 61.588,208.066 61.540,207.932 61.623 C 207.797 61.706,207.688 61.657,207.688 61.515 C 207.688 61.373,207.581 61.257,207.451 61.257 C 207.321 61.257,207.278 61.422,207.355 61.623 M195.875 63.171 C 195.790 63.308,195.840 63.493,195.985 63.583 C 196.361 63.815,196.603 63.497,196.289 63.184 C 196.114 63.009,195.978 63.004,195.875 63.171 M194.841 64.063 C 194.764 64.265,194.548 64.430,194.361 64.430 C 194.174 64.430,194.021 64.543,194.021 64.682 C 194.021 64.998,194.781 64.618,195.230 64.077 C 195.452 63.809,195.462 63.697,195.263 63.697 C 195.108 63.697,194.918 63.862,194.841 64.063 M211.592 63.889 C 211.592 63.994,211.949 64.289,212.386 64.544 L 213.179 65.007 212.569 64.356 C 211.958 63.705,211.592 63.530,211.592 63.889 M193.451 65.324 C 193.086 65.690,193.272 66.211,193.655 65.894 C 193.856 65.727,194.021 65.494,194.021 65.376 C 194.021 65.123,193.683 65.093,193.451 65.324 M213.309 65.452 C 213.304 65.679,213.418 65.937,213.561 66.026 C 213.991 66.292,214.052 66.011,213.672 65.510 C 213.360 65.097,213.315 65.090,213.309 65.452 M191.821 68.097 C 191.415 68.854,191.638 69.107,192.130 68.448 C 192.373 68.122,192.457 67.814,192.325 67.732 C 192.197 67.653,191.970 67.817,191.821 68.097 M190.932 70.419 C 190.735 70.934,191.065 71.212,191.346 70.768 C 191.644 70.295,191.638 70.043,191.329 70.043 C 191.190 70.043,191.012 70.212,190.932 70.419 M215.497 70.409 C 215.497 70.610,215.717 70.995,215.985 71.263 C 216.542 71.820,216.682 71.376,216.221 70.515 C 215.921 69.954,215.497 69.892,215.497 70.409 M215.924 76.573 C 215.689 76.625,215.497 76.770,215.497 76.894 C 215.497 77.206,216.164 77.179,216.361 76.860 C 216.567 76.527,216.457 76.454,215.924 76.573 M191.662 79.195 C 191.662 79.396,191.805 79.561,191.979 79.561 C 192.161 79.561,192.237 79.405,192.157 79.195 C 192.079 78.993,191.936 78.829,191.839 78.829 C 191.741 78.829,191.662 78.993,191.662 79.195 M192.651 80.676 C 192.733 80.890,192.800 81.111,192.800 81.167 C 192.800 81.223,192.910 81.269,193.045 81.269 C 193.442 81.269,193.322 80.602,192.895 80.438 C 192.608 80.328,192.542 80.392,192.651 80.676 M214.147 80.549 C 213.915 80.924,214.233 81.166,214.546 80.853 C 214.722 80.678,214.726 80.541,214.559 80.438 C 214.423 80.354,214.237 80.404,214.147 80.549 M211.283 83.954 C 210.963 84.327,210.944 84.442,211.200 84.442 C 211.385 84.442,211.593 84.222,211.663 83.954 C 211.733 83.685,211.771 83.466,211.746 83.466 C 211.721 83.466,211.513 83.685,211.283 83.954 M201.934 86.320 C 201.985 86.669,202.245 86.768,203.196 86.799 L 204.393 86.839 203.436 86.612 C 202.909 86.487,202.342 86.271,202.174 86.132 C 201.948 85.944,201.886 85.992,201.934 86.320 M204.822 86.268 C 204.364 86.790,204.818 86.871,205.308 86.355 C 205.584 86.065,205.627 85.909,205.430 85.915 C 205.262 85.920,204.989 86.079,204.822 86.268 M203.966 97.396 C 203.731 97.533,203.539 97.749,203.539 97.877 C 203.539 98.278,204.145 98.129,204.580 97.621 C 205.038 97.085,204.707 96.964,203.966 97.396 M207.148 97.423 C 207.498 97.773,208.236 97.916,208.038 97.595 C 207.961 97.470,207.796 97.432,207.671 97.509 C 207.546 97.586,207.444 97.533,207.444 97.391 C 207.444 97.249,207.312 97.132,207.151 97.132 C 206.924 97.132,206.924 97.198,207.148 97.423 M198.303 98.533 C 198.217 98.757,198.312 98.849,198.577 98.797 C 198.801 98.754,199.023 98.600,199.071 98.454 C 199.203 98.059,198.456 98.135,198.303 98.533 M193.289 99.237 C 193.289 99.519,193.376 99.564,193.594 99.392 C 193.761 99.259,194.063 99.089,194.265 99.015 C 194.473 98.938,194.342 98.871,193.960 98.860 C 193.495 98.847,193.289 98.963,193.289 99.237 M187.955 99.765 C 187.612 99.879,187.581 100.549,187.919 100.549 C 188.054 100.549,188.376 100.337,188.635 100.077 C 189.119 99.594,188.845 99.468,187.955 99.765 M184.686 100.477 C 184.988 100.535,185.482 100.535,185.784 100.477 C 186.086 100.419,185.839 100.372,185.235 100.372 C 184.631 100.372,184.384 100.419,184.686 100.477 M182.144 100.915 C 182.144 101.117,182.277 101.281,182.439 101.281 C 182.602 101.281,182.871 101.117,183.038 100.915 C 183.294 100.607,183.248 100.549,182.743 100.549 C 182.373 100.549,182.144 100.689,182.144 100.915 M176.449 101.540 C 176.449 101.682,176.322 101.720,176.167 101.624 C 175.989 101.514,175.952 101.557,176.067 101.744 C 176.207 101.971,176.340 101.967,176.654 101.728 C 176.877 101.558,177.105 101.388,177.161 101.350 C 177.217 101.312,177.080 101.281,176.856 101.281 C 176.632 101.281,176.449 101.398,176.449 101.540 M207.976 108.412 C 207.635 108.753,207.599 109.091,207.906 109.091 C 208.129 109.091,208.497 108.355,208.348 108.206 C 208.303 108.160,208.135 108.253,207.976 108.412 M179.622 109.553 C 179.622 109.778,180.199 110.067,180.648 110.067 C 180.802 110.067,180.782 109.923,180.598 109.701 C 180.266 109.302,179.622 109.204,179.622 109.553 M182.218 110.433 C 182.122 110.682,182.231 110.799,182.558 110.799 C 182.822 110.799,183.011 110.923,182.977 111.074 C 182.944 111.225,183.054 111.399,183.221 111.460 C 183.389 111.522,183.527 111.406,183.527 111.202 C 183.527 110.999,183.305 110.762,183.035 110.676 C 182.764 110.590,182.606 110.418,182.683 110.294 C 182.760 110.169,182.719 110.067,182.591 110.067 C 182.463 110.067,182.295 110.232,182.218 110.433 M207.472 110.474 C 207.456 110.631,207.372 110.961,207.286 111.206 C 207.163 111.553,207.196 111.591,207.431 111.374 C 207.597 111.221,207.681 110.891,207.617 110.642 C 207.553 110.393,207.487 110.317,207.472 110.474 M206.284 113.890 C 205.856 114.062,205.903 114.623,206.345 114.623 C 206.547 114.623,206.711 114.421,206.711 114.175 C 206.711 113.929,206.684 113.737,206.650 113.747 C 206.617 113.758,206.452 113.822,206.284 113.890 M180.502 124.120 C 180.421 124.332,180.361 124.744,180.369 125.035 L 180.385 125.564 180.606 125.015 C 180.727 124.713,180.940 124.466,181.078 124.466 C 181.217 124.466,181.330 124.301,181.330 124.100 C 181.330 123.614,180.690 123.629,180.502 124.120 M179.622 127.435 C 179.622 127.726,179.653 127.918,179.691 127.863 C 179.729 127.807,179.907 127.569,180.087 127.334 C 180.367 126.968,180.357 126.907,180.018 126.907 C 179.774 126.907,179.622 127.110,179.622 127.435 M202.563 127.613 C 202.563 127.777,202.471 127.855,202.359 127.786 C 202.247 127.717,202.156 127.820,202.156 128.016 C 202.156 128.211,202.251 128.371,202.367 128.371 C 202.641 128.371,202.913 127.663,202.715 127.466 C 202.631 127.382,202.563 127.448,202.563 127.613 M178.083 133.022 C 177.985 133.397,178.055 133.505,178.357 133.446 C 178.867 133.348,179.058 132.520,178.570 132.520 C 178.374 132.520,178.155 132.746,178.083 133.022 M200.659 133.301 C 200.260 133.699,200.291 133.984,200.732 133.984 C 200.936 133.984,201.098 133.767,201.098 133.496 C 201.098 132.927,201.053 132.907,200.659 133.301 M177.185 136.242 C 177.188 136.686,177.234 136.721,177.425 136.425 C 177.731 135.951,177.731 135.692,177.425 135.692 C 177.291 135.692,177.183 135.940,177.185 136.242 M199.203 138.960 C 199.020 139.360,199.004 139.597,199.159 139.597 C 199.456 139.597,199.716 138.991,199.587 138.601 C 199.535 138.448,199.363 138.609,199.203 138.960 M198.231 141.970 C 197.860 142.102,197.821 142.770,198.184 142.770 C 198.326 142.770,198.380 142.670,198.305 142.547 C 198.229 142.424,198.305 142.274,198.473 142.214 C 198.642 142.154,198.725 142.050,198.658 141.983 C 198.591 141.916,198.398 141.910,198.231 141.970 M175.046 144.640 C 174.878 144.708,174.753 145.056,174.769 145.414 C 174.791 145.919,174.825 145.957,174.920 145.583 C 174.987 145.318,175.221 144.964,175.440 144.797 C 175.839 144.494,175.622 144.408,175.046 144.640 M174.075 148.127 C 174.102 148.484,174.188 148.538,174.423 148.343 C 174.595 148.200,174.675 147.986,174.602 147.867 C 174.362 147.480,174.038 147.639,174.075 148.127 M196.217 150.539 C 196.217 150.696,196.052 150.824,195.851 150.824 C 195.650 150.824,195.485 150.970,195.485 151.149 C 195.485 151.649,196.191 151.535,196.358 151.009 C 196.439 150.752,196.441 150.478,196.362 150.399 C 196.282 150.319,196.217 150.382,196.217 150.539 M172.539 154.368 C 172.083 154.918,172.348 154.982,172.892 154.453 C 173.150 154.202,173.246 153.996,173.105 153.996 C 172.964 153.996,172.709 154.164,172.539 154.368 M194.753 154.383 C 194.753 154.595,194.883 154.726,195.043 154.673 C 195.495 154.522,195.570 153.996,195.139 153.996 C 194.927 153.996,194.753 154.170,194.753 154.383 M194.260 157.172 C 193.981 157.345,193.967 157.457,194.198 157.688 C 194.428 157.918,194.528 157.892,194.653 157.565 C 194.857 157.034,194.714 156.891,194.260 157.172 M171.665 157.790 C 171.580 158.132,171.578 158.480,171.661 158.563 C 171.744 158.647,171.812 158.482,171.812 158.198 C 171.812 157.914,172.004 157.569,172.239 157.433 C 172.641 157.198,172.641 157.183,172.244 157.176 C 171.991 157.172,171.759 157.419,171.665 157.790 M207.566 159.901 C 207.834 160.053,208.134 160.297,208.233 160.443 C 208.344 160.607,208.414 160.556,208.416 160.307 C 208.420 159.917,207.939 159.602,207.363 159.617 C 207.206 159.621,207.297 159.749,207.566 159.901 M193.594 160.463 C 193.193 160.918,193.209 161.074,193.655 161.074 C 193.858 161.074,194.021 160.857,194.021 160.586 C 194.021 160.013,193.996 160.006,193.594 160.463 M209.132 160.906 C 209.383 161.582,209.884 161.727,209.884 161.123 C 209.884 160.854,209.677 160.589,209.414 160.520 C 209.024 160.418,208.976 160.483,209.132 160.906 M201.488 160.792 C 201.403 160.928,201.453 161.114,201.599 161.203 C 201.974 161.435,202.216 161.118,201.903 160.804 C 201.727 160.629,201.591 160.625,201.488 160.792 M200.447 162.412 C 200.447 162.703,200.523 162.717,200.834 162.481 C 201.046 162.320,201.266 162.157,201.322 162.119 C 201.378 162.081,201.204 162.050,200.936 162.050 C 200.667 162.050,200.447 162.213,200.447 162.412 M193.045 163.718 C 193.045 164.025,192.891 164.246,192.678 164.246 C 192.456 164.246,192.320 164.462,192.332 164.796 C 192.342 165.098,192.407 165.207,192.475 165.038 C 192.543 164.870,192.690 164.788,192.801 164.857 C 193.037 165.003,193.407 163.552,193.190 163.334 C 193.110 163.254,193.045 163.427,193.045 163.718 M198.414 165.467 C 198.212 165.597,198.157 165.707,198.292 165.711 C 198.426 165.715,198.371 165.825,198.170 165.955 C 197.874 166.146,197.909 166.192,198.353 166.195 C 198.740 166.198,198.902 166.055,198.902 165.711 C 198.902 165.151,198.902 165.151,198.414 165.467 M207.932 165.467 C 207.738 165.586,207.661 165.765,207.760 165.864 C 207.859 165.963,208.068 165.916,208.225 165.760 C 208.593 165.391,208.387 165.185,207.932 165.467 M169.403 168.337 C 169.069 168.960,169.322 169.212,169.800 168.734 C 170.057 168.477,170.092 168.286,169.915 168.109 C 169.739 167.933,169.582 168.002,169.403 168.337 M194.140 169.376 C 194.056 169.512,193.885 169.560,193.760 169.483 C 193.635 169.406,193.533 169.481,193.533 169.650 C 193.533 169.889,193.468 169.892,193.240 169.664 C 193.079 169.503,192.851 169.372,192.734 169.372 C 192.617 169.372,192.686 169.536,192.888 169.738 C 193.376 170.226,193.681 170.199,194.265 169.616 C 194.533 169.347,194.650 169.128,194.523 169.128 C 194.397 169.128,194.225 169.239,194.140 169.376 M205.614 169.384 C 205.499 169.578,205.236 170.012,205.030 170.348 C 204.661 170.950,204.665 170.950,205.341 170.296 C 205.718 169.933,205.981 169.499,205.925 169.332 C 205.851 169.108,205.770 169.122,205.614 169.384 M201.830 174.296 C 201.830 174.499,201.611 174.864,201.342 175.107 C 201.074 175.350,200.854 175.696,200.854 175.877 C 200.854 176.057,200.748 176.205,200.619 176.205 C 200.489 176.205,200.266 176.425,200.122 176.693 C 199.945 177.024,199.942 177.181,200.113 177.181 C 200.252 177.181,200.366 177.016,200.366 176.815 C 200.366 176.614,200.531 176.449,200.732 176.449 C 200.936 176.449,201.098 176.232,201.098 175.961 C 201.098 175.692,201.251 175.473,201.438 175.473 C 201.780 175.473,202.213 174.310,201.964 174.061 C 201.891 173.987,201.830 174.093,201.830 174.296 M198.797 178.053 C 198.586 178.264,198.417 178.566,198.421 178.724 C 198.425 178.882,198.538 178.823,198.673 178.592 C 198.807 178.362,199.106 178.063,199.337 177.929 C 199.567 177.794,199.627 177.681,199.468 177.677 C 199.310 177.673,199.008 177.842,198.797 178.053 M197.559 179.134 C 197.317 179.402,196.970 179.622,196.790 179.622 C 196.609 179.622,196.461 179.786,196.461 179.988 C 196.461 180.189,196.578 180.354,196.720 180.354 C 196.862 180.354,196.912 180.247,196.832 180.117 C 196.751 179.987,196.954 179.813,197.282 179.730 C 197.611 179.648,197.934 179.370,198.002 179.113 C 198.155 178.527,198.107 178.529,197.559 179.134 M194.753 181.208 C 194.417 181.400,194.253 181.562,194.387 181.569 C 194.521 181.576,194.466 181.688,194.265 181.818 C 193.952 182.020,193.961 182.055,194.326 182.058 C 194.561 182.061,194.753 181.897,194.753 181.696 C 194.753 181.495,194.918 181.330,195.119 181.330 C 195.320 181.330,195.485 181.220,195.485 181.086 C 195.485 180.785,195.496 180.783,194.753 181.208 M171.649 181.441 C 171.649 181.637,171.812 181.859,172.010 181.935 C 172.558 182.146,172.599 181.943,172.098 181.490 C 171.727 181.154,171.649 181.146,171.649 181.441 M172.544 182.518 C 172.544 182.611,172.874 182.812,173.276 182.964 C 173.679 183.116,174.009 183.164,174.009 183.071 C 174.009 182.978,173.679 182.777,173.276 182.625 C 172.874 182.473,172.544 182.425,172.544 182.518 M174.741 183.871 C 174.741 184.255,175.858 184.687,176.135 184.410 C 176.218 184.327,176.111 184.259,175.897 184.259 C 175.683 184.259,175.335 184.086,175.124 183.875 C 174.780 183.531,174.741 183.530,174.741 183.871 M189.049 184.208 C 188.983 184.314,189.142 184.417,189.401 184.437 C 189.660 184.456,189.872 184.369,189.872 184.244 C 189.872 183.966,189.216 183.937,189.049 184.208 M186.436 184.892 C 186.153 185.232,186.186 185.271,186.692 185.197 C 187.010 185.151,187.316 184.976,187.372 184.808 C 187.516 184.369,186.818 184.432,186.436 184.892 " stroke="none" fill="#f03408" fill-rule="evenodd"></path><path id="path3" d="" stroke="none" fill="#403408" fill-rule="evenodd"></path><path id="path4" d="" stroke="none" fill="#043808" fill-rule="evenodd"></path><path id="path5" d="" stroke="none" fill="#04040c" fill-rule="evenodd"></path><path id="path6" d="" stroke="none" fill="#080404" fill-rule="evenodd"></path><path id="path7" d="" stroke="none" fill="#080404" fill-rule="evenodd"></path><path id="path8" d="" stroke="none" fill="#080404" fill-rule="evenodd"></path></g></svg>